<svg id="fi-rr-cross-circle" xmlns="http://www.w3.org/2000/svg" width="28.174" height="28.174" viewBox="0 0 28.174 28.174">
  <path id="Path_780" data-name="Path 780" d="M17.442,8.051a1.174,1.174,0,0,0-1.66,0l-3.036,3.036L9.711,8.051a1.174,1.174,0,1,0-1.66,1.66l3.036,3.036L8.051,15.782a1.174,1.174,0,1,0,1.66,1.66l3.036-3.036,3.036,3.036a1.174,1.174,0,1,0,1.66-1.66l-3.036-3.036,3.036-3.036A1.174,1.174,0,0,0,17.442,8.051Z" transform="translate(1.34 1.34)" fill="red"/>
  <path id="Path_781" data-name="Path 781" d="M14.087,0A14.087,14.087,0,1,0,28.174,14.087,14.087,14.087,0,0,0,14.087,0Zm0,25.826A11.739,11.739,0,1,1,25.826,14.087,11.739,11.739,0,0,1,14.087,25.826Z" transform="translate(0 0)" fill="red"/>
</svg>
