<svg xmlns="http://www.w3.org/2000/svg" width="36" height="36" viewBox="0 0 36 36">
  <g id="Group_11387" data-name="Group 11387" transform="translate(-323 -48)">
    <g id="Group_10639" data-name="Group 10639" transform="translate(12 -3)">
      <rect id="Rectangle_7" data-name="Rectangle 7" width="36" height="36" rx="10" transform="translate(311 51)" fill="#fff"/>
      <g id="fi-sr-bell" transform="translate(318.91 59)">
        <path id="Path_1042" data-name="Path 1042" d="M7.424,21a4,4,0,0,0,7.341,0Z" transform="translate(-1.254 -4.156)" fill="#515151"/>
        <path id="Path_1043" data-name="Path 1043" d="M18.176,10.065l-1.392-4.59a7.476,7.476,0,0,0-14.5.364L1.2,10.28a4.01,4.01,0,0,0,3.9,4.959h9.238a4.01,4.01,0,0,0,3.838-5.174Z" transform="translate(0 0)" fill="#515151"/>
      </g>
    </g>
    <g id="Ellipse_6" data-name="Ellipse 6" transform="translate(341 53)" fill="#f60" stroke="#fff" stroke-width="1">
      <circle cx="5.5" cy="5.5" r="5.5" stroke="none"/>
      <circle cx="5.5" cy="5.5" r="5" fill="none"/>
    </g>
  </g>
</svg>
